<?xml version="1.0" encoding="UTF-8" standalone="no"?>
<svg
   xmlns:svg="http://www.w3.org/2000/svg"
   xmlns="http://www.w3.org/2000/svg"
   version="1.0"
   x="0"
   y="0"
   width="250px"
   height="250px">
  <path
     style="fill:#373737;fill-opacity:1.0000000;fill-rule:nonzero;stroke:#000000;stroke-width:7.0931334;stroke-miterlimit:4.0000000;stroke-opacity:1.0000000"
     d="M 243.89100,125.09098 C 243.89100,190.52772 190.58667,243.63580 124.90814,243.63580 C 59.229608,243.63580 5.9252761,190.52772 5.9252761,125.09098 C 5.9252761,59.654216 59.229608,6.5461323 124.90814,6.5461323 C 190.58667,6.5461323 243.89100,59.654216 243.89100,125.09098 z"
     id="path19684" />
  <path
     style="opacity:0.81404960;fill:#ca0c11;fill-opacity:1.0000000;fill-rule:nonzero;stroke:#9f9f9f;stroke-width:6.4284644;stroke-miterlimit:4.0000000;stroke-opacity:1.0000000"
     d="M 232.96458,124.08063 C 232.96458,183.38558 184.65518,231.51712 125.13111,231.51712 C 65.607054,231.51712 17.297654,183.38558 17.297654,124.08063 C 17.297654,64.775691 65.607054,16.644151 125.13111,16.644151 C 184.65518,16.644151 232.96458,64.775691 232.96458,124.08063 z"
     id="light" />
  <path
     style="opacity:0.57024795;fill:#ffffff;fill-opacity:1.0000000;fill-rule:evenodd;stroke:#000000;stroke-width:1.0000000px;stroke-linecap:butt;stroke-linejoin:miter;stroke-opacity:1.0000000"
     d="M 64.670413,73.662664 C 97.206459,47.553491 104.83837,58.398840 104.83837,58.398840 C 104.83837,58.398840 116.07038,75.901076 84.352712,98.968475 C 53.423385,121.46253 57.841860,119.85581 45.791473,118.65077 C 33.741085,117.44573 48.603230,84.106333 64.670413,73.662664 z"
     id="path2766" />
</svg>
