<?xml version="1.0" encoding="UTF-8" standalone="no"?>
<svg
   xmlns:dc="http://purl.org/dc/elements/1.1/"
   xmlns:cc="http://creativecommons.org/ns#"
   xmlns:rdf="http://www.w3.org/1999/02/22-rdf-syntax-ns#"
   xmlns:svg="http://www.w3.org/2000/svg"
   xmlns="http://www.w3.org/2000/svg"
   xmlns:sodipodi="http://sodipodi.sourceforge.net/DTD/sodipodi-0.dtd"
   xmlns:inkscape="http://www.inkscape.org/namespaces/inkscape"
   inkscape:version="1.0rc1 (09960d6f05, 2020-04-09)"
   sodipodi:docname="PushButton.svg"
   id="svg2"
   height="375.00000"
   width="375.00000"
   y="0.00000000"
   x="0.00000000"
   version="1.0">
  <metadata
     id="metadata3893">
    <rdf:RDF>
      <cc:Work
         rdf:about="">
        <dc:format>image/svg+xml</dc:format>
        <dc:type
           rdf:resource="http://purl.org/dc/dcmitype/StillImage" />
        <dc:title></dc:title>
      </cc:Work>
    </rdf:RDF>
  </metadata>
  <sodipodi:namedview
     inkscape:current-layer="svg2"
     inkscape:window-maximized="1"
     inkscape:window-y="-8"
     inkscape:window-x="-8"
     inkscape:cy="170.61155"
     inkscape:cx="185.35441"
     inkscape:zoom="1.7800235"
     showgrid="false"
     id="namedview3891"
     inkscape:window-height="1017"
     inkscape:window-width="1920"
     inkscape:pageshadow="2"
     inkscape:pageopacity="0"
     guidetolerance="10"
     gridtolerance="10"
     objecttolerance="10"
     borderopacity="1"
     bordercolor="#666666"
     pagecolor="#ffffff">
    <inkscape:grid
       id="grid4456"
       type="xygrid" />
  </sodipodi:namedview>
  <defs
     id="defs4" />
  <g
     style="fill:#666666"
     id="layer1">
    <path
       id="path1312"
       style="fill:#666666;fill-opacity:1;stroke:none;stroke-width:1.683;stroke-miterlimit:4;stroke-opacity:1"
       d="M 375.00000,187.22748 C 375.00000,290.57705 291.00000,374.45496 187.50000,374.45496 C 84.000000,374.45496 0.00000000,290.57705 0.00000000,187.22748 C 0.00000000,83.877910 84.000000,2.0788926e-014 187.50000,0.00000000 C 291.00000,-4.1577852e-014 375.00000,83.877910 375.00000,187.22748 z " />
    <path
       transform="matrix(0.862336,0.000000,0.000000,0.862336,26.66707,26.86453)"
       id="on"
       style="fill:#666666;fill-opacity:1;stroke:#ffffff;stroke-width:18.478439;stroke-miterlimit:4;stroke-opacity:1"
       d="M 375.00000,187.22748 C 375.00000,290.57705 291.00000,374.45496 187.50000,374.45496 C 84.000000,374.45496 0.00000000,290.57705 0.00000000,187.22748 C 0.00000000,83.877910 84.000000,2.0788926e-014 187.50000,0.00000000 C 291.00000,-4.1577852e-014 375.00000,83.877910 375.00000,187.22748 z " />
  </g>
</svg>
